<svg xmlns="http://www.w3.org/2000/svg" xmlns:xlink="http://www.w3.org/1999/xlink" width="412" zoomAndPan="magnify" viewBox="0 0 309 308.999992" height="412" preserveAspectRatio="xMidYMid meet" version="1.0"><rect x="-30.9" width="370.8" fill="#ffffff" y="-30.899999" height="370.79999" fill-opacity="1"/><path fill="#b04190" d="M 173.472656 143.78125 L 298.878906 143.78125 C 304.164062 143.78125 308.34375 139.234375 307.789062 134.007812 C 300.476562 63.683594 244.660156 7.867188 174.335938 0.554688 C 169.109375 0 164.5625 4.179688 164.5625 9.464844 L 164.5625 134.871094 C 164.5625 139.789062 168.554688 143.78125 173.472656 143.78125 Z M 173.472656 143.78125 " fill-opacity="1" fill-rule="nonzero"/><path fill="#5ec57e" d="M 143.78125 143.78125 L 143.78125 18.320312 C 143.78125 13.03125 139.234375 8.851562 134.007812 9.40625 C 63.683594 16.78125 7.867188 72.597656 0.554688 142.921875 C 0 148.148438 4.179688 152.695312 9.464844 152.695312 L 134.871094 152.695312 C 139.789062 152.695312 143.78125 148.699219 143.78125 143.78125 Z M 143.78125 143.78125 " fill-opacity="1" fill-rule="nonzero"/><path fill="#009ee2" d="M 155.648438 173.472656 L 155.648438 298.878906 C 155.648438 304.164062 160.195312 308.34375 165.421875 307.789062 C 235.746094 300.476562 291.5625 244.660156 298.878906 174.335938 C 299.429688 169.109375 295.25 164.5625 289.964844 164.5625 L 164.5625 164.5625 C 159.644531 164.5625 155.648438 168.554688 155.648438 173.472656 Z M 155.648438 173.472656 " fill-opacity="1" fill-rule="nonzero"/><path fill="#e5007e" d="M 134.871094 164.5625 L 9.464844 164.5625 C 4.179688 164.5625 0 169.109375 0.554688 174.335938 C 7.867188 244.660156 63.683594 300.476562 134.007812 307.789062 C 139.234375 308.34375 143.78125 304.164062 143.78125 298.878906 L 143.78125 173.472656 C 143.78125 168.554688 139.789062 164.5625 134.871094 164.5625 Z M 134.871094 164.5625 " fill-opacity="1" fill-rule="nonzero"/><path fill="#ffffff" d="M 226.523438 72.230469 C 221.484375 72.230469 217.425781 76.226562 217.179688 81.203125 L 227.199219 78.5 C 228 78.316406 228.800781 78.5 229.351562 79.054688 C 229.90625 79.605469 230.152344 80.40625 229.90625 81.203125 L 227.324219 90.917969 C 232.179688 90.546875 236.050781 86.550781 236.050781 81.636719 C 235.929688 76.472656 231.75 72.230469 226.523438 72.230469 Z M 226.523438 72.230469 " fill-opacity="1" fill-rule="nonzero"/><path fill="#ffffff" d="M 223.820312 95.28125 L 227.753906 80.710938 L 213.125 84.585938 L 216.136719 87.597656 L 199.476562 104.257812 L 194.683594 102.902344 L 183.125 114.582031 L 190.316406 116.675781 L 191.363281 117.71875 L 193.515625 124.910156 L 205.132812 113.230469 L 203.902344 109.175781 L 220.808594 92.269531 Z M 223.820312 95.28125 " fill-opacity="1" fill-rule="nonzero"/><path fill="#ffffff" d="M 226.523438 58.519531 C 213.738281 58.519531 203.410156 68.910156 203.410156 81.695312 C 203.410156 86.121094 204.703125 90.242188 206.914062 93.804688 L 211.769531 88.949219 C 210.664062 86.738281 210.050781 84.277344 210.050781 81.695312 C 210.050781 72.597656 217.488281 65.160156 226.585938 65.160156 C 235.683594 65.160156 243.121094 72.597656 243.121094 81.695312 C 243.121094 90.792969 235.683594 98.230469 226.585938 98.230469 C 224.066406 98.230469 221.730469 97.617188 219.640625 96.632812 L 214.785156 101.492188 C 218.226562 103.582031 222.28125 104.808594 226.585938 104.808594 C 239.371094 104.808594 249.699219 94.421875 249.699219 81.695312 C 249.636719 68.910156 239.25 58.519531 226.523438 58.519531 Z M 226.523438 58.519531 " fill-opacity="1" fill-rule="nonzero"/><path fill="#ffffff" d="M 226.523438 46.042969 C 206.851562 46.042969 190.871094 62.023438 190.871094 81.695312 C 190.871094 89.625 193.515625 96.820312 197.941406 102.78125 L 202.613281 98.109375 C 199.414062 93.4375 197.507812 87.78125 197.507812 81.695312 C 197.507812 65.652344 210.542969 52.621094 226.585938 52.621094 C 242.628906 52.621094 255.664062 65.652344 255.664062 81.695312 C 255.664062 97.742188 242.628906 110.773438 226.585938 110.773438 C 220.625 110.773438 215.089844 108.929688 210.417969 105.855469 L 205.746094 110.527344 C 211.585938 114.769531 218.777344 117.351562 226.585938 117.351562 C 246.257812 117.351562 262.238281 101.367188 262.238281 81.695312 C 262.117188 62.023438 246.132812 46.042969 226.523438 46.042969 Z M 226.523438 46.042969 " fill-opacity="1" fill-rule="nonzero"/><path fill="#ffffff" d="M 204.703125 220.191406 L 183.25 204.027344 L 183.617188 197.570312 L 203.59375 212.691406 L 221.359375 188.78125 L 225.664062 191.976562 Z M 204.703125 220.191406 " fill-opacity="1" fill-rule="nonzero"/><path fill="#ffffff" d="M 211.035156 216.441406 C 211.035156 220.253906 207.960938 223.328125 204.148438 223.328125 C 200.335938 223.328125 197.265625 220.253906 197.265625 216.441406 C 197.265625 212.632812 200.335938 209.558594 204.148438 209.558594 C 207.960938 209.558594 211.035156 212.632812 211.035156 216.441406 Z M 211.035156 216.441406 " fill-opacity="1" fill-rule="nonzero"/><path fill="#ffffff" d="M 231.75 190.378906 C 231.75 194.191406 228.675781 197.265625 224.863281 197.265625 C 221.054688 197.265625 217.980469 194.191406 217.980469 190.378906 C 217.980469 186.566406 221.054688 183.492188 224.863281 183.492188 C 228.675781 183.433594 231.75 186.566406 231.75 190.378906 Z M 231.75 190.378906 " fill-opacity="1" fill-rule="nonzero"/><path fill="#ffffff" d="M 190.378906 200.828125 C 190.378906 204.640625 187.304688 207.714844 183.492188 207.714844 C 179.683594 207.714844 176.609375 204.640625 176.609375 200.828125 C 176.609375 197.019531 179.683594 193.945312 183.492188 193.945312 C 187.242188 193.882812 190.378906 197.019531 190.378906 200.828125 Z M 190.378906 200.828125 " fill-opacity="1" fill-rule="nonzero"/><path fill="#ffffff" d="M 176.484375 215.398438 L 190.378906 215.398438 L 190.378906 255.171875 L 176.484375 255.171875 Z M 176.484375 215.398438 " fill-opacity="1" fill-rule="nonzero"/><path fill="#ffffff" d="M 196.957031 229.351562 L 210.847656 229.351562 L 210.847656 254.738281 L 196.957031 254.738281 Z M 196.957031 229.351562 " fill-opacity="1" fill-rule="nonzero"/><path fill="#ffffff" d="M 217.917969 205.316406 L 231.8125 205.316406 L 231.8125 255.109375 L 217.917969 255.109375 Z M 217.917969 205.316406 " fill-opacity="1" fill-rule="nonzero"/><path fill="#ffffff" d="M 110.402344 195.113281 L 110.402344 187.796875 C 110.402344 185.890625 108.804688 184.292969 106.898438 184.292969 L 76.839844 184.292969 C 76.71875 184.292969 76.65625 184.355469 76.59375 184.355469 C 76.285156 184.355469 75.980469 184.417969 75.671875 184.539062 C 75.550781 184.601562 75.425781 184.601562 75.304688 184.660156 C 74.996094 184.785156 74.75 184.96875 74.503906 185.214844 C 74.441406 185.277344 74.382812 185.339844 74.320312 185.398438 C 74.320312 185.398438 74.257812 185.398438 74.257812 185.460938 L 58.214844 202.488281 C 58.089844 202.613281 58.03125 202.796875 57.90625 202.917969 C 57.785156 203.105469 57.597656 203.347656 57.476562 203.59375 C 57.351562 203.839844 57.351562 204.148438 57.292969 204.394531 C 57.292969 204.515625 57.167969 204.703125 57.167969 204.886719 L 57.167969 249.761719 C 57.167969 251.726562 58.765625 253.265625 60.671875 253.265625 L 106.839844 253.265625 C 108.742188 253.265625 110.34375 251.726562 110.34375 249.761719 L 110.34375 241.953125 C 108.007812 242.261719 105.609375 242.136719 103.335938 241.707031 L 103.335938 246.257812 L 64.238281 246.257812 L 64.238281 208.390625 L 76.777344 208.390625 C 78.683594 208.390625 80.28125 206.792969 80.28125 204.886719 L 80.28125 191.363281 L 103.335938 191.363281 L 103.335938 195.480469 C 105.730469 194.929688 108.066406 194.867188 110.402344 195.113281 Z M 110.402344 195.113281 " fill-opacity="1" fill-rule="nonzero"/><path fill="#ffffff" d="M 84.953125 213.125 C 84.402344 215.398438 84.214844 217.796875 84.402344 220.132812 L 73.398438 220.132812 C 71.492188 220.132812 69.894531 218.53125 69.894531 216.628906 C 69.894531 214.722656 71.492188 213.125 73.398438 213.125 Z M 84.953125 213.125 " fill-opacity="1" fill-rule="nonzero"/><path fill="#ffffff" d="M 87.660156 230.644531 L 73.398438 230.644531 C 71.492188 230.644531 69.894531 229.042969 69.894531 227.140625 C 69.894531 225.234375 71.492188 223.636719 73.398438 223.636719 L 84.894531 223.636719 C 85.445312 226.03125 86.367188 228.429688 87.660156 230.644531 Z M 87.660156 230.644531 " fill-opacity="1" fill-rule="nonzero"/><path fill="#ffffff" d="M 97.25 239.554688 C 96.632812 240.480469 95.527344 241.15625 94.296875 241.15625 L 73.398438 241.15625 C 71.492188 241.15625 69.894531 239.554688 69.894531 237.652344 C 69.894531 235.746094 71.492188 234.148438 73.398438 234.148438 L 90.179688 234.148438 C 92.207031 236.421875 94.667969 238.265625 97.25 239.554688 Z M 97.25 239.554688 " fill-opacity="1" fill-rule="nonzero"/><path fill="#ffffff" d="M 129.089844 239.3125 L 120.238281 226.832031 C 119.253906 228.308594 118.027344 229.597656 116.488281 230.703125 C 114.953125 231.8125 113.292969 232.488281 111.632812 232.917969 L 120.484375 245.394531 C 121.53125 246.871094 123.128906 247.609375 124.789062 247.609375 C 125.832031 247.609375 126.878906 247.300781 127.800781 246.625 C 130.199219 245.027344 130.75 241.707031 129.089844 239.3125 Z M 129.089844 239.3125 " fill-opacity="1" fill-rule="nonzero"/><path fill="#ffffff" d="M 107.945312 237.035156 C 106.898438 237.035156 105.855469 236.976562 104.808594 236.789062 C 99.953125 235.929688 95.710938 233.285156 92.824219 229.230469 C 89.996094 225.171875 88.828125 220.316406 89.6875 215.460938 C 90.546875 210.601562 93.191406 206.363281 97.25 203.472656 C 105.546875 197.570312 117.105469 199.539062 123.003906 207.898438 C 125.832031 211.957031 127 216.8125 126.140625 221.667969 C 125.28125 226.523438 122.636719 230.765625 118.578125 233.65625 C 115.445312 235.867188 111.757812 237.035156 107.945312 237.035156 Z M 107.882812 207.097656 C 105.609375 207.097656 103.273438 207.777344 101.304688 209.1875 C 98.785156 210.972656 97.125 213.617188 96.632812 216.628906 C 96.140625 219.640625 96.820312 222.652344 98.601562 225.171875 C 100.382812 227.691406 103.027344 229.351562 106.039062 229.84375 C 109.050781 230.398438 112.0625 229.660156 114.582031 227.875 C 117.105469 226.09375 118.765625 223.449219 119.253906 220.4375 C 119.746094 217.425781 119.070312 214.414062 117.289062 211.894531 C 115.015625 208.757812 111.449219 207.097656 107.882812 207.097656 Z M 107.882812 207.097656 " fill-opacity="1" fill-rule="nonzero"/><path fill="#ffffff" d="M 61.042969 71.738281 C 60.367188 72.414062 59.199219 72.414062 58.519531 71.738281 L 53.050781 66.265625 C 52.375 65.589844 52.375 64.421875 53.050781 63.746094 C 53.726562 63.070312 54.894531 63.070312 55.570312 63.746094 L 61.042969 69.21875 C 61.78125 69.957031 61.78125 71.0625 61.042969 71.738281 Z M 61.042969 71.738281 " fill-opacity="1" fill-rule="nonzero"/><path fill="#ffffff" d="M 50.835938 91.410156 C 50.46875 91.777344 49.914062 92.023438 49.300781 91.902344 L 41.554688 90.792969 C 40.570312 90.671875 39.894531 89.75 40.019531 88.765625 C 40.140625 87.78125 41.0625 87.105469 42.046875 87.230469 L 49.792969 88.335938 C 50.777344 88.457031 51.453125 89.378906 51.328125 90.363281 C 51.328125 90.792969 51.144531 91.164062 50.835938 91.410156 Z M 50.835938 91.410156 " fill-opacity="1" fill-rule="nonzero"/><path fill="#ffffff" d="M 54.035156 112.984375 C 53.910156 113.109375 53.789062 113.230469 53.605469 113.292969 L 46.597656 116.917969 C 45.734375 117.351562 44.628906 117.042969 44.199219 116.183594 C 43.769531 115.320312 44.074219 114.214844 44.9375 113.785156 L 51.945312 110.15625 C 52.804688 109.726562 53.910156 110.035156 54.339844 110.894531 C 54.710938 111.632812 54.585938 112.433594 54.035156 112.984375 Z M 54.035156 112.984375 " fill-opacity="1" fill-rule="nonzero"/><path fill="#ffffff" d="M 124.605469 76.53125 C 124.480469 76.65625 124.296875 76.777344 124.113281 76.839844 L 117.042969 80.34375 C 116.183594 80.773438 115.074219 80.40625 114.644531 79.542969 C 114.214844 78.683594 114.582031 77.578125 115.445312 77.148438 L 122.515625 73.644531 C 123.375 73.214844 124.480469 73.582031 124.910156 74.441406 C 125.339844 75.117188 125.15625 75.980469 124.605469 76.53125 Z M 124.605469 76.53125 " fill-opacity="1" fill-rule="nonzero"/><path fill="#ffffff" d="M 102.289062 64.730469 C 101.734375 65.285156 100.875 65.40625 100.199219 65.039062 C 99.339844 64.605469 98.96875 63.5 99.460938 62.640625 L 103.210938 55.386719 C 103.640625 54.527344 104.75 54.15625 105.609375 54.648438 C 106.46875 55.078125 106.839844 56.183594 106.347656 57.046875 L 102.597656 64.300781 C 102.535156 64.484375 102.414062 64.605469 102.289062 64.730469 Z M 102.289062 64.730469 " fill-opacity="1" fill-rule="nonzero"/><path fill="#ffffff" d="M 65.835938 135.363281 C 65.285156 135.914062 64.484375 136.039062 63.746094 135.730469 C 62.886719 135.300781 62.457031 134.195312 62.949219 133.332031 L 66.390625 126.261719 C 66.820312 125.339844 67.925781 124.972656 68.789062 125.464844 C 69.648438 125.894531 70.078125 127 69.585938 127.863281 L 66.144531 134.929688 C 66.082031 135.054688 65.960938 135.238281 65.835938 135.363281 Z M 65.835938 135.363281 " fill-opacity="1" fill-rule="nonzero"/><path fill="#ffffff" d="M 80.710938 61.59375 C 80.46875 61.839844 80.097656 62.023438 79.730469 62.085938 C 78.746094 62.210938 77.824219 61.535156 77.699219 60.550781 L 76.59375 52.804688 C 76.472656 51.820312 77.148438 50.898438 78.132812 50.777344 C 79.113281 50.652344 80.035156 51.328125 80.160156 52.3125 L 81.265625 60.058594 C 81.265625 60.613281 81.082031 61.164062 80.710938 61.59375 Z M 80.710938 61.59375 " fill-opacity="1" fill-rule="nonzero"/><path fill="#ffffff" d="M 63.253906 74.441406 C 57.230469 80.46875 53.605469 87.84375 52.988281 95.28125 C 52.3125 103.394531 55.203125 110.894531 61.289062 116.980469 C 68.171875 123.867188 78.808594 128.476562 89.132812 129.03125 L 90.425781 129.089844 C 91.65625 129.089844 92.882812 129.03125 94.175781 128.96875 C 95.589844 128.96875 96.632812 129.214844 97.617188 129.644531 L 97.617188 129.828125 L 99.277344 130.691406 C 100.445312 131.734375 101.921875 132.289062 103.394531 132.164062 C 104.871094 132.101562 106.285156 131.425781 107.269531 130.382812 L 119.253906 118.394531 L 119.378906 118.273438 C 120.914062 116.429688 121.160156 113.90625 120.054688 111.632812 C 119.933594 111.386719 119.808594 111.140625 119.625 110.957031 L 119.195312 110.34375 C 118.085938 108.683594 117.78125 107.332031 117.78125 105.792969 C 118.949219 94.175781 114.214844 80.835938 106.039062 72.535156 C 93.992188 60.488281 76.472656 61.226562 63.253906 74.441406 Z M 100.566406 77.886719 C 107.207031 84.585938 111.140625 95.773438 110.15625 105.179688 L 110.15625 105.609375 C 110.21875 107.882812 110.527344 110.894531 112.679688 114.214844 L 102.902344 123.925781 C 99.523438 121.714844 96.386719 121.40625 93.992188 121.40625 L 93.683594 121.40625 C 93.007812 121.46875 92.332031 121.53125 91.65625 121.53125 L 90.425781 121.53125 C 81.757812 121.347656 72.414062 117.472656 66.636719 111.695312 C 62.210938 107.207031 60.058594 101.796875 60.550781 95.957031 C 60.980469 90.300781 63.871094 84.585938 68.664062 79.789062 C 78.621094 69.769531 91.777344 69.03125 100.566406 77.886719 Z M 100.566406 77.886719 " fill-opacity="1" fill-rule="nonzero"/><path fill="#ffffff" d="M 110.710938 136.40625 L 125.09375 122.082031 C 126.019531 121.160156 125.957031 119.625 124.972656 118.640625 L 124.542969 118.210938 C 123.558594 117.226562 122.023438 117.164062 121.101562 118.085938 L 106.714844 132.410156 C 105.792969 133.332031 105.855469 134.871094 106.839844 135.851562 L 107.269531 136.285156 C 108.253906 137.265625 109.789062 137.328125 110.710938 136.40625 Z M 110.710938 136.40625 " fill-opacity="1" fill-rule="nonzero"/><path fill="#ffffff" d="M 121.835938 127.0625 L 122.574219 127.800781 C 123.742188 128.96875 123.742188 130.75 122.699219 131.796875 L 120.484375 134.007812 C 119.441406 135.054688 117.597656 134.992188 116.488281 133.886719 L 115.75 133.148438 Z M 121.835938 127.0625 " fill-opacity="1" fill-rule="nonzero"/><path fill="#ffffff" d="M 94.667969 86.429688 C 92.390625 87.414062 91.65625 90.054688 92.023438 92.207031 C 92.332031 94.113281 93.007812 95.957031 93.746094 97.679688 C 92.824219 98.910156 91.902344 100.078125 90.917969 101.058594 L 90.734375 101.246094 C 90.609375 101.367188 90.546875 101.429688 90.425781 101.550781 C 90.300781 101.675781 90.117188 101.859375 89.996094 101.980469 C 88.949219 102.964844 87.84375 103.886719 86.613281 104.808594 C 85.382812 104.316406 84.15625 103.949219 82.988281 103.582031 C 80.160156 102.660156 77.945312 102.902344 76.410156 104.378906 C 74.75 105.917969 74.566406 108.375 76.039062 110.15625 C 77.824219 112.308594 80.46875 112.679688 83.847656 111.203125 C 84.03125 111.140625 84.277344 111.078125 84.523438 110.957031 C 84.707031 110.835938 84.953125 110.710938 85.140625 110.589844 L 85.382812 110.464844 C 86 110.15625 86.613281 109.789062 87.289062 109.296875 C 89.8125 110.402344 92.453125 111.816406 95.464844 113.601562 C 100.015625 116.367188 104.316406 119.746094 108.191406 123.621094 C 108.253906 123.683594 108.375 123.742188 108.4375 123.867188 L 108.742188 124.113281 L 113.171875 119.6875 L 112.925781 119.378906 C 112.863281 119.316406 112.800781 119.195312 112.679688 119.132812 C 108.742188 115.320312 105.363281 111.019531 102.597656 106.46875 C 100.8125 103.519531 99.398438 100.875 98.292969 98.417969 C 101.121094 94.175781 101.734375 90.917969 100.136719 88.398438 C 99.03125 86.675781 96.820312 85.445312 94.667969 86.429688 Z M 96.878906 91.839844 C 96.820312 92.332031 96.632812 92.824219 96.386719 93.4375 C 96.265625 93.007812 96.140625 92.578125 96.019531 92.148438 C 95.835938 91.53125 95.835938 90.425781 96.082031 90.117188 C 96.082031 90.117188 96.140625 90.054688 96.328125 90.054688 C 96.941406 90.242188 97.003906 91.285156 96.878906 91.839844 Z M 95.589844 101.921875 C 96.386719 103.640625 97.308594 105.363281 98.230469 107.023438 C 99.585938 109.296875 101.058594 111.570312 102.660156 113.722656 C 98.910156 110.957031 94.972656 108.621094 90.855469 106.714844 C 91.285156 106.347656 91.714844 105.917969 92.207031 105.484375 C 92.515625 105.238281 92.761719 104.933594 93.070312 104.6875 L 93.4375 104.316406 C 94.175781 103.519531 94.914062 102.71875 95.589844 101.921875 Z M 82.371094 107.574219 C 81.757812 107.820312 81.265625 108.007812 80.773438 108.066406 C 80.222656 108.191406 79.175781 108.128906 79.054688 107.574219 C 78.992188 107.390625 79.054688 107.332031 79.113281 107.332031 C 79.421875 107.023438 80.46875 107.085938 81.144531 107.269531 C 81.511719 107.332031 81.941406 107.453125 82.371094 107.574219 Z M 82.371094 107.574219 " fill-opacity="1" fill-rule="nonzero"/></svg>