<svg xmlns="http://www.w3.org/2000/svg" xmlns:xlink="http://www.w3.org/1999/xlink" width="334" zoomAndPan="magnify" viewBox="0 0 250.5 231" height="308" preserveAspectRatio="xMidYMid meet" version="1.0"><defs><clipPath id="8b0c05c252"><path d="M 0 0.230469 L 250 0.230469 L 250 230.769531 L 0 230.769531 Z M 0 0.230469 " clip-rule="nonzero"/></clipPath><clipPath id="7fedb44ad1"><path d="M 139 0.230469 L 249 0.230469 L 249 154 L 139 154 Z M 139 0.230469 " clip-rule="nonzero"/></clipPath></defs><g clip-path="url(#8b0c05c252)"><path fill="#ffffff" d="M 0 0.230469 L 250 0.230469 L 250 230.769531 L 0 230.769531 Z M 0 0.230469 " fill-opacity="1" fill-rule="nonzero"/></g><path fill="#5ec57e" d="M 143.652344 195.585938 L 143.652344 42.417969 C 143.652344 22.441406 148.410156 11.976562 172.195312 11.976562 L 172.195312 1.511719 L 76.109375 1.511719 L 76.109375 11.976562 C 100.84375 11.976562 106.550781 22.441406 106.550781 42.417969 L 106.550781 195.585938 C 106.550781 211.757812 101.792969 219.367188 78.011719 219.367188 L 78.011719 229.832031 L 174.097656 229.832031 L 174.097656 219.367188 C 149.359375 219.367188 143.652344 211.757812 143.652344 195.585938 Z M 143.652344 195.585938 " fill-opacity="1" fill-rule="nonzero"/><g clip-path="url(#7fedb44ad1)"><path fill="#5ec57e" d="M 139.847656 134.699219 C 197.878906 134.699219 201.683594 124.234375 201.683594 67.152344 C 201.683594 51.929688 203.589844 0.558594 241.640625 0.558594 C 249.253906 1.511719 248.300781 1.511719 248.300781 1.511719 L 248.300781 12.925781 C 235.933594 12.925781 229.273438 21.488281 229.273438 38.613281 L 229.273438 77.617188 C 229.273438 150.871094 176.949219 153.726562 165.535156 153.726562 C 158.875 153.726562 139.847656 153.726562 139.847656 153.726562 Z M 139.847656 134.699219 " fill-opacity="1" fill-rule="nonzero"/></g><path fill="#5ec57e" d="M 109.40625 134.699219 C 51.371094 134.699219 47.566406 124.234375 47.566406 68.105469 C 47.566406 52.882812 45.664062 1.511719 7.609375 1.511719 C 0 1.511719 0.953125 1.511719 0.953125 1.511719 L 0.953125 12.925781 C 13.320312 12.925781 19.976562 21.488281 19.976562 38.613281 L 19.976562 77.617188 C 19.976562 150.871094 72.300781 153.726562 83.71875 153.726562 C 90.378906 153.726562 109.40625 153.726562 109.40625 153.726562 Z M 109.40625 134.699219 " fill-opacity="1" fill-rule="nonzero"/></svg>