<svg xmlns="http://www.w3.org/2000/svg" xmlns:xlink="http://www.w3.org/1999/xlink" width="404" zoomAndPan="magnify" viewBox="0 0 303 307.499996" height="410" preserveAspectRatio="xMidYMid meet" version="1.0"><defs><clipPath id="4529e64584"><path d="M 0.246094 0 L 302.753906 0 L 302.753906 307 L 0.246094 307 Z M 0.246094 0 " clip-rule="nonzero"/></clipPath><clipPath id="4604fe328e"><path d="M 0.246094 0 L 302.753906 0 L 302.753906 307 L 0.246094 307 Z M 0.246094 0 " clip-rule="nonzero"/></clipPath></defs><g clip-path="url(#4529e64584)"><path fill="#ffffff" d="M 0.246094 0 L 302.753906 0 L 302.753906 307 L 0.246094 307 Z M 0.246094 0 " fill-opacity="1" fill-rule="nonzero"/><path fill="#ffffff" d="M 302.613281 133.375 L 302.613281 229.695312 C 302.613281 239.800781 294.375 248.148438 284.160156 248.148438 L 245.941406 248.148438 L 245.941406 280 C 245.941406 294.71875 233.96875 306.6875 219.25 306.6875 L 97.667969 306.6875 C 82.949219 306.6875 70.976562 294.71875 70.976562 280 L 70.976562 246.722656 L 44.398438 246.722656 C 37.699219 246.722656 31.878906 243.097656 28.582031 237.714844 C 23.75 234.417969 20.566406 228.816406 20.566406 222.558594 L 20.566406 167.863281 C 20.566406 157.757812 28.800781 149.410156 39.015625 149.410156 L 70.867188 149.410156 L 70.867188 119.863281 L 22.101562 119.863281 C 15.402344 119.863281 9.691406 115.140625 8.265625 108.882812 C 3.429688 106.574219 0.246094 101.742188 0.246094 96.140625 L 0.246094 32.988281 C 0.246094 25.078125 6.617188 18.710938 14.523438 18.710938 L 72.1875 18.710938 C 75.589844 7.945312 85.695312 0.148438 97.667969 0.148438 L 219.25 0.148438 C 233.96875 0.148438 245.941406 12.121094 245.941406 26.835938 L 245.941406 105.367188 L 277.242188 105.367188 C 285.480469 105.367188 292.507812 110.75 294.816406 118.21875 C 299.539062 121.621094 302.613281 127.113281 302.613281 133.375 Z M 302.613281 133.375 " fill-opacity="1" fill-rule="nonzero"/></g><path fill="#5ec57e" d="M 80.53125 149.410156 L 73.066406 149.410156 L 73.066406 119.863281 L 81.632812 119.863281 L 81.632812 149.519531 C 81.300781 149.519531 80.972656 149.410156 80.53125 149.410156 Z M 235.175781 248.148438 L 243.742188 248.148438 L 243.742188 267.480469 C 243.742188 280.988281 232.761719 291.972656 219.25 291.972656 L 97.667969 291.972656 C 84.15625 291.972656 73.175781 280.988281 73.175781 267.480469 L 73.175781 246.722656 L 81.742188 246.722656 L 81.742188 248.808594 C 81.742188 252.210938 84.488281 255.066406 88 255.066406 L 229.027344 255.066406 C 232.429688 255.066406 235.285156 252.324219 235.285156 248.808594 L 235.285156 248.148438 Z M 171.914062 272.53125 C 172.023438 271.980469 172.023438 271.433594 172.023438 270.992188 C 172.023438 263.523438 165.871094 257.375 158.402344 257.375 C 150.9375 257.375 144.785156 263.523438 144.785156 270.992188 C 144.785156 271.542969 144.785156 272.09375 144.894531 272.53125 C 144.785156 273.082031 144.785156 273.628906 144.785156 274.070312 C 144.785156 281.539062 150.9375 287.6875 158.402344 287.6875 C 165.871094 287.6875 172.023438 281.539062 172.023438 274.070312 C 172.023438 273.628906 172.023438 273.082031 171.914062 272.53125 Z M 80.753906 18.710938 L 74.601562 18.710938 C 77.898438 9.152344 87.011719 2.34375 97.667969 2.34375 L 219.25 2.34375 C 232.761719 2.34375 243.742188 13.328125 243.742188 26.835938 L 243.742188 105.476562 L 235.175781 105.476562 L 235.175781 32.4375 C 235.175781 29.035156 232.429688 26.179688 228.917969 26.179688 L 97.777344 26.179688 C 95.359375 21.675781 90.636719 18.601562 85.144531 18.601562 L 80.753906 18.601562 Z M 129.847656 13.988281 C 129.847656 14.316406 129.847656 14.535156 129.957031 14.867188 C 130.398438 16.621094 131.933594 18.050781 133.800781 18.050781 L 183.007812 18.050781 C 184.875 18.050781 186.519531 16.734375 186.851562 14.867188 C 186.960938 14.644531 186.960938 14.316406 186.960938 13.988281 L 186.960938 13.546875 C 186.960938 13.21875 186.960938 13 186.851562 12.667969 C 186.410156 10.910156 184.875 9.484375 183.007812 9.484375 L 133.800781 9.484375 C 131.933594 9.484375 130.289062 10.800781 129.957031 12.667969 C 129.847656 12.886719 129.847656 13.21875 129.847656 13.546875 Z M 161.699219 96.800781 C 161.699219 103.28125 161.808594 109.652344 161.699219 116.128906 C 161.699219 117.667969 162.25 117.996094 163.566406 117.886719 C 167.738281 117.777344 171.914062 117.886719 176.085938 117.886719 C 178.285156 117.886719 180.480469 117.886719 182.566406 117.886719 C 181.90625 119.753906 181.578125 121.730469 181.578125 123.820312 L 181.578125 124.476562 C 179.820312 124.476562 178.0625 124.476562 176.308594 124.476562 C 172.023438 124.476562 167.628906 124.476562 163.347656 124.476562 C 162.027344 124.476562 161.589844 124.808594 161.589844 126.234375 C 161.699219 132.605469 161.699219 138.867188 161.589844 145.234375 C 161.589844 146.773438 162.027344 147.324219 163.675781 147.324219 C 169.605469 147.214844 175.648438 147.214844 181.578125 147.324219 L 181.578125 153.914062 C 178.613281 153.914062 175.648438 153.914062 172.683594 153.914062 C 169.605469 153.914062 166.53125 154.023438 163.457031 153.914062 C 162.136719 153.914062 161.699219 154.351562 161.699219 155.671875 C 161.808594 160.722656 161.699219 165.882812 161.699219 170.9375 C 161.699219 173.351562 161.808594 173.351562 164.117188 172.585938 C 172.242188 170.058594 177.515625 164.457031 181.6875 157.648438 L 181.6875 175.109375 C 174.550781 178.1875 166.640625 179.941406 158.402344 179.941406 C 126.003906 179.941406 99.753906 153.691406 99.753906 121.183594 C 99.753906 120.195312 99.753906 119.097656 99.863281 118.109375 C 104.148438 115.691406 107.113281 110.96875 107.113281 105.695312 L 107.113281 92.734375 C 113.261719 81.644531 122.820312 72.855469 134.351562 67.585938 C 135.667969 69.453125 137.097656 71.429688 138.414062 73.296875 L 141.050781 76.921875 C 138.085938 79.886719 135.777344 83.402344 133.582031 87.246094 C 133.03125 88.234375 133.582031 88.453125 134.460938 88.453125 C 137.644531 88.453125 140.722656 88.453125 143.90625 88.453125 C 146.980469 88.453125 150.058594 88.34375 153.132812 88.453125 C 154.667969 88.5625 155.21875 88.011719 155.21875 86.367188 C 155.109375 81.644531 155.21875 76.8125 155.21875 72.085938 C 155.21875 71.539062 155.21875 71.097656 155.21875 70.660156 C 156.535156 68.902344 157.746094 67.144531 159.0625 65.386719 C 159.832031 64.398438 160.382812 63.410156 160.929688 62.3125 C 186.632812 63.300781 208.15625 81.203125 214.859375 105.257812 L 208.046875 105.257812 C 207.058594 102.070312 205.742188 98.996094 204.09375 96.03125 C 203.765625 95.261719 202.996094 94.824219 202.226562 94.933594 C 199.8125 94.933594 197.285156 94.933594 194.867188 94.933594 C 193.550781 94.933594 193.332031 95.261719 193.660156 96.582031 C 194.648438 99.65625 195.308594 102.621094 195.855469 105.804688 C 193.660156 106.355469 191.574219 107.234375 189.707031 108.441406 C 189.046875 104.378906 188.058594 100.425781 186.851562 96.46875 C 186.632812 95.480469 185.753906 94.824219 184.765625 95.042969 C 177.515625 95.042969 170.375 95.042969 163.125 95.042969 C 162.027344 95.042969 161.699219 95.59375 161.699219 96.800781 Z M 131.386719 95.042969 C 130.617188 94.933594 129.847656 95.480469 129.738281 96.25 C 127.652344 102.730469 126.332031 109.320312 125.894531 116.128906 C 125.785156 117.449219 126.222656 117.996094 127.652344 117.886719 C 131.933594 117.777344 136.328125 117.886719 140.613281 117.886719 C 144.894531 117.886719 149.289062 117.886719 153.570312 117.886719 C 154.78125 117.886719 155.21875 117.449219 155.21875 116.242188 C 155.21875 109.652344 155.21875 103.058594 155.21875 96.582031 C 155.21875 95.59375 154.890625 95.042969 153.792969 95.042969 C 146.324219 95.152344 138.855469 95.152344 131.386719 95.042969 Z M 118.753906 88.5625 C 120.953125 88.890625 123.257812 88.78125 125.453125 88.453125 C 126.773438 88.125 126.773438 86.144531 127.652344 84.9375 C 127.871094 84.609375 128.089844 84.277344 128.199219 83.949219 C 129.738281 80.984375 131.714844 78.238281 133.472656 75.164062 C 131.496094 76.480469 129.410156 77.6875 127.429688 79.117188 C 124.246094 81.535156 121.28125 84.167969 118.644531 87.246094 C 118.425781 87.574219 117.546875 88.453125 118.753906 88.5625 Z M 107.992188 117.996094 C 109.640625 117.886719 111.175781 117.996094 112.824219 117.996094 C 114.472656 117.996094 116.007812 117.886719 117.65625 117.996094 C 118.972656 118.109375 119.523438 117.449219 119.523438 116.242188 C 119.742188 109.652344 120.953125 103.058594 122.929688 96.691406 C 123.257812 95.703125 123.148438 95.152344 121.828125 95.152344 C 119.304688 95.152344 116.777344 95.152344 114.25 95.152344 C 113.484375 95.042969 112.824219 95.480469 112.496094 96.140625 C 109.089844 102.402344 107.003906 109.320312 106.34375 116.460938 C 106.453125 117.667969 106.894531 117.996094 107.992188 117.996094 Z M 121.828125 147.324219 C 122.929688 147.324219 123.476562 146.992188 123.039062 145.785156 C 120.953125 139.304688 119.851562 132.605469 119.523438 125.90625 C 119.523438 124.699219 118.863281 124.367188 117.765625 124.476562 C 116.230469 124.585938 114.691406 124.476562 113.152344 124.476562 L 113.152344 124.367188 C 111.503906 124.367188 109.859375 124.367188 108.101562 124.367188 C 107.003906 124.367188 106.34375 124.699219 106.453125 126.015625 C 107.113281 133.15625 109.199219 140.074219 112.714844 146.335938 C 113.042969 146.992188 113.703125 147.433594 114.472656 147.324219 C 116.886719 147.324219 119.414062 147.324219 121.828125 147.324219 Z M 132.265625 164.566406 C 130.175781 162.039062 128.53125 159.183594 127.210938 156.109375 C 126.332031 154.132812 125.234375 153.253906 123.148438 153.691406 C 122.820312 153.691406 122.488281 153.691406 122.160156 153.691406 C 121.5 153.691406 120.730469 153.691406 120.074219 153.691406 C 119.523438 153.691406 118.644531 153.363281 118.316406 154.132812 C 118.097656 154.679688 118.863281 155.121094 119.195312 155.558594 C 122.707031 159.515625 126.773438 162.917969 131.277344 165.664062 C 131.714844 165.882812 132.152344 166.761719 132.703125 166.214844 C 133.253906 165.664062 132.59375 165.003906 132.265625 164.566406 Z M 155.21875 171.375 C 155.109375 165.996094 155.109375 160.722656 155.21875 155.339844 C 155.21875 153.914062 154.667969 153.582031 153.351562 153.582031 C 150.277344 153.691406 147.203125 153.582031 144.015625 153.582031 C 140.832031 153.582031 137.644531 153.582031 134.570312 153.582031 C 133.144531 153.582031 133.03125 154.023438 133.691406 155.121094 C 134.898438 157.425781 136.328125 159.515625 137.867188 161.601562 C 141.929688 166.871094 146.871094 170.828125 153.351562 172.585938 C 154.558594 173.023438 155.21875 173.023438 155.21875 171.375 Z M 155.21875 145.347656 C 155.109375 139.195312 155.21875 132.933594 155.21875 126.785156 C 155.21875 124.367188 155.21875 124.367188 152.800781 124.367188 C 148.628906 124.367188 144.566406 124.367188 140.390625 124.367188 L 140.390625 124.476562 C 136.21875 124.476562 132.042969 124.585938 127.871094 124.476562 C 126.332031 124.476562 125.894531 124.917969 126.003906 126.453125 C 126.554688 133.042969 127.761719 139.632812 129.738281 145.894531 C 130.175781 147.214844 130.945312 147.324219 132.042969 147.324219 C 139.183594 147.324219 146.210938 147.214844 153.351562 147.324219 C 154.890625 147.324219 155.328125 146.882812 155.21875 145.347656 Z M 183.226562 75.710938 C 184.324219 77.359375 185.203125 78.566406 186.082031 79.777344 C 187.070312 80.984375 187.839844 82.300781 188.5 83.730469 C 189.816406 88.453125 193.109375 89.222656 197.285156 88.5625 C 197.722656 88.453125 198.382812 88.78125 198.601562 88.125 C 198.710938 87.683594 198.273438 87.355469 197.945312 87.023438 C 195.527344 84.277344 192.890625 81.753906 189.925781 79.554688 C 187.949219 78.128906 186.191406 76.480469 183.226562 75.710938 Z M 163.238281 88.5625 C 166.3125 88.453125 169.386719 88.5625 172.460938 88.5625 C 175.648438 88.5625 178.941406 88.5625 182.128906 88.5625 C 183.554688 88.5625 183.664062 88.125 183.007812 87.023438 C 181.796875 84.71875 180.371094 82.632812 178.832031 80.542969 C 174.769531 75.273438 169.9375 71.320312 163.347656 69.5625 C 162.027344 69.230469 161.371094 69.34375 161.480469 70.878906 C 161.480469 76.261719 161.480469 81.535156 161.480469 86.914062 C 161.589844 88.125 161.917969 88.671875 163.238281 88.5625 Z M 136.328125 66.707031 C 135.449219 65.496094 134.570312 64.289062 133.691406 63.082031 C 129.738281 57.371094 130.175781 49.902344 134.789062 44.628906 C 137.316406 41.664062 141.050781 39.796875 145.003906 39.578125 C 152.363281 39.578125 158.515625 44.082031 160.160156 50.890625 C 161.148438 54.953125 160.601562 58.6875 158.402344 62.421875 C 158.074219 62.972656 157.636719 63.628906 157.195312 64.179688 C 155.878906 65.9375 154.667969 67.695312 153.351562 69.453125 C 152.035156 71.210938 150.824219 73.078125 149.507812 74.832031 C 148.410156 76.371094 147.3125 77.910156 146.210938 79.554688 L 146.101562 79.667969 C 145.992188 79.886719 145.882812 79.996094 145.773438 79.996094 C 145.664062 79.996094 145.664062 79.886719 145.445312 79.667969 L 142.367188 75.382812 L 139.953125 71.976562 C 138.855469 70.332031 137.644531 68.464844 136.328125 66.707031 Z M 137.867188 54.515625 C 137.867188 59.019531 141.488281 62.640625 145.992188 62.640625 C 150.496094 62.53125 154.011719 59.019531 154.121094 54.515625 C 154.121094 54.183594 154.121094 53.964844 154.121094 53.746094 C 154.011719 53.195312 153.902344 52.757812 153.792969 52.207031 C 153.792969 52.097656 153.792969 52.097656 153.679688 51.988281 C 153.570312 51.769531 153.570312 51.660156 153.460938 51.4375 C 153.460938 51.328125 153.351562 51.328125 153.351562 51.21875 C 153.242188 51.109375 153.242188 50.890625 153.132812 50.78125 C 153.132812 50.671875 153.023438 50.671875 153.023438 50.5625 C 152.914062 50.449219 152.800781 50.230469 152.691406 50.121094 C 152.691406 50.121094 152.582031 50.011719 152.582031 50.011719 C 152.472656 49.792969 152.363281 49.683594 152.253906 49.570312 C 152.253906 49.460938 152.144531 49.460938 152.144531 49.351562 C 152.035156 49.242188 151.925781 49.132812 151.8125 48.914062 C 151.8125 48.914062 151.703125 48.804688 151.703125 48.804688 C 151.59375 48.695312 151.375 48.582031 151.265625 48.363281 C 151.15625 48.363281 151.15625 48.253906 151.046875 48.253906 C 150.933594 48.144531 150.714844 48.035156 150.605469 47.925781 C 150.496094 47.925781 150.496094 47.816406 150.386719 47.816406 C 150.277344 47.707031 150.058594 47.59375 149.945312 47.484375 C 149.835938 47.484375 149.835938 47.375 149.726562 47.375 C 149.617188 47.265625 149.398438 47.265625 149.289062 47.15625 C 149.179688 47.15625 149.070312 47.046875 149.070312 47.046875 C 148.957031 46.9375 148.738281 46.9375 148.628906 46.828125 C 148.519531 46.828125 148.410156 46.828125 148.300781 46.714844 C 148.191406 46.714844 147.96875 46.605469 147.859375 46.605469 C 147.75 46.605469 147.640625 46.605469 147.53125 46.605469 C 147.421875 46.605469 147.203125 46.496094 147.089844 46.496094 C 146.980469 46.496094 146.871094 46.496094 146.761719 46.496094 C 146.652344 46.496094 146.433594 46.496094 146.324219 46.496094 C 146.324219 46.496094 146.210938 46.496094 146.210938 46.496094 L 146.101562 46.496094 C 145.992188 46.496094 145.773438 46.496094 145.664062 46.496094 C 145.554688 46.496094 145.445312 46.496094 145.335938 46.496094 C 145.113281 46.496094 144.894531 46.605469 144.675781 46.605469 C 144.675781 46.605469 144.566406 46.605469 144.566406 46.605469 C 143.355469 46.828125 142.148438 47.375 141.160156 48.253906 C 141.050781 48.363281 140.832031 48.472656 140.722656 48.695312 C 140.722656 48.695312 140.609375 48.804688 140.609375 48.804688 C 140.609375 48.804688 140.5 48.914062 140.5 48.914062 C 140.390625 49.023438 140.28125 49.132812 140.171875 49.242188 C 140.171875 49.242188 140.0625 49.351562 140.0625 49.351562 C 139.953125 49.460938 139.84375 49.683594 139.734375 49.792969 C 139.734375 49.902344 139.621094 49.902344 139.621094 49.902344 C 139.511719 50.011719 139.402344 50.230469 139.292969 50.339844 C 139.292969 50.449219 139.183594 50.449219 139.183594 50.5625 C 139.074219 50.78125 138.964844 50.890625 138.964844 51.109375 C 138.964844 51.21875 138.855469 51.21875 138.855469 51.328125 C 138.746094 51.550781 138.746094 51.660156 138.632812 51.878906 C 138.632812 51.988281 138.632812 51.988281 138.523438 52.097656 C 138.523438 52.316406 138.414062 52.429688 138.414062 52.648438 C 138.414062 52.757812 138.414062 52.757812 138.304688 52.867188 C 138.304688 53.085938 138.195312 53.195312 138.195312 53.417969 C 138.195312 53.527344 138.195312 53.636719 138.195312 53.746094 C 138.195312 53.855469 138.195312 54.074219 138.195312 54.183594 C 138.195312 54.296875 138.195312 54.296875 138.195312 54.40625 Z M 64.609375 88.34375 C 65.484375 88.34375 66.363281 88.011719 67.132812 87.683594 L 67.902344 87.683594 L 67.683594 87.355469 L 51.316406 69.230469 L 49.449219 70.660156 C 47.582031 72.085938 45.496094 72.746094 43.628906 72.746094 C 43.191406 72.746094 42.859375 72.746094 42.421875 72.636719 C 40.664062 72.308594 39.238281 71.429688 38.246094 70 L 37.808594 69.34375 L 22.761719 80.875 L 21.332031 81.972656 L 19.90625 83.070312 L 13.425781 88.125 L 13.207031 88.34375 L 14.085938 88.34375 C 14.304688 88.34375 14.523438 88.453125 14.742188 88.453125 L 64.609375 88.453125 Z M 70.867188 57.261719 L 67.464844 57.261719 L 52.964844 67.914062 L 69.21875 85.816406 C 69.660156 85.269531 69.988281 84.609375 70.207031 83.839844 L 70.976562 81.09375 L 72.074219 77.03125 L 73.175781 72.964844 L 77.457031 57.039062 C 77.019531 57.152344 76.6875 57.152344 76.25 57.152344 L 70.867188 57.152344 Z M 22.210938 78.457031 L 23.640625 77.359375 L 36.492188 67.476562 L 29.132812 56.929688 L 27.59375 54.515625 L 22.542969 47.375 C 21.992188 48.035156 21.554688 48.804688 21.332031 49.683594 L 11.996094 84.5 C 11.777344 85.15625 11.777344 85.816406 11.996094 86.367188 L 20.894531 79.554688 Z M 11.339844 88.34375 Z M 28.253906 51.769531 L 29.023438 52.976562 L 29.789062 54.183594 L 38.136719 66.15625 L 39.457031 67.914062 L 40.003906 68.683594 C 40.664062 69.671875 41.652344 70.21875 42.75 70.441406 C 44.398438 70.660156 46.265625 70.109375 48.023438 68.792969 L 49.78125 67.476562 L 51.539062 66.15625 L 63.839844 57.261719 L 60.761719 57.261719 C 58.675781 57.261719 56.808594 56.382812 55.710938 54.953125 C 54.503906 53.417969 54.171875 51.328125 54.722656 49.132812 L 55.492188 46.167969 L 55.710938 45.289062 L 26.824219 45.289062 C 26.054688 45.289062 25.398438 45.507812 24.738281 45.839844 L 23.96875 45.839844 L 24.1875 46.058594 Z M 64.386719 42.980469 C 64.496094 42.980469 64.71875 42.980469 64.828125 42.980469 C 65.046875 42.980469 65.265625 42.980469 65.375 43.09375 C 65.375 43.09375 65.484375 43.09375 65.484375 43.09375 C 65.925781 43.203125 66.144531 43.53125 66.035156 44.191406 C 66.035156 44.300781 66.035156 44.410156 65.925781 44.628906 C 65.925781 44.847656 65.816406 45.070312 65.816406 45.289062 C 65.816406 45.289062 65.816406 45.398438 65.816406 45.398438 C 65.707031 45.726562 65.597656 46.058594 65.597656 46.386719 C 64.9375 48.914062 65.15625 48.035156 64.277344 51.328125 C 64.167969 51.550781 64.167969 51.769531 64.058594 51.988281 L 68.890625 51.988281 L 70.320312 46.496094 L 70.648438 45.398438 L 70.867188 44.628906 L 70.976562 44.300781 L 71.308594 43.203125 L 72.074219 40.457031 L 72.734375 37.492188 C 72.515625 37.492188 72.296875 37.492188 72.074219 37.492188 C 72.074219 37.492188 72.074219 37.492188 71.964844 37.492188 C 71.746094 37.492188 71.636719 37.492188 71.417969 37.492188 C 71.199219 37.492188 71.085938 37.492188 70.867188 37.492188 C 70.867188 37.492188 70.867188 37.492188 70.757812 37.492188 C 69.988281 37.492188 69.21875 37.820312 68.671875 38.371094 C 68.011719 38.917969 67.242188 39.359375 66.476562 39.6875 C 66.035156 39.90625 65.484375 40.125 65.046875 40.238281 C 64.71875 40.347656 64.277344 40.457031 63.949219 40.566406 C 63.839844 40.566406 63.839844 40.675781 63.730469 40.675781 C 63.617188 40.785156 63.507812 40.785156 63.507812 40.894531 C 63.289062 41.554688 63.179688 42.214844 62.960938 42.980469 C 63.070312 42.980469 63.070312 42.980469 63.179688 42.980469 C 63.730469 42.980469 64.058594 42.980469 64.386719 42.980469 Z M 80.53125 238.8125 C 80.863281 238.8125 81.300781 238.8125 81.632812 238.703125 C 81.960938 238.703125 82.398438 238.59375 82.730469 238.59375 C 83.058594 238.59375 83.5 238.484375 83.828125 238.375 C 85.695312 238.042969 87.34375 237.273438 88.878906 236.398438 C 89.429688 236.066406 89.980469 235.738281 90.527344 235.296875 C 90.96875 234.96875 91.40625 234.640625 91.847656 234.199219 C 93.273438 232.882812 94.371094 231.34375 95.25 229.585938 L 24.410156 229.585938 C 24.957031 230.796875 25.726562 232.003906 26.605469 232.992188 C 27.15625 233.652344 27.703125 234.199219 28.363281 234.75 C 28.582031 234.96875 28.800781 235.1875 29.023438 235.296875 C 29.460938 235.628906 29.789062 235.847656 30.230469 236.175781 C 30.339844 236.285156 30.449219 236.285156 30.667969 236.398438 C 33.085938 237.933594 35.941406 238.703125 39.015625 238.703125 L 80.53125 238.703125 Z M 61.3125 182.796875 L 34.625 182.796875 C 32.535156 182.796875 30.777344 181.042969 30.777344 178.953125 L 30.777344 165.554688 C 30.777344 165.335938 30.777344 165.003906 30.890625 164.785156 C 31.109375 163.46875 32.097656 162.480469 33.195312 161.929688 C 33.636719 161.710938 34.074219 161.601562 34.625 161.601562 L 61.3125 161.601562 C 63.398438 161.601562 65.15625 163.359375 65.15625 165.445312 L 65.15625 178.84375 C 65.15625 181.042969 63.507812 182.796875 61.3125 182.796875 Z M 45.605469 172.472656 C 45.605469 169.839844 43.519531 167.75 40.882812 167.75 C 38.246094 167.75 36.160156 169.839844 36.160156 172.472656 C 36.160156 175.109375 38.246094 177.195312 40.882812 177.195312 C 43.410156 177.195312 45.605469 175.109375 45.605469 172.472656 Z M 59.996094 171.597656 L 50.660156 171.597656 L 50.660156 173.792969 L 59.996094 173.792969 Z M 80.203125 202.238281 C 80.421875 202.457031 80.753906 202.789062 81.082031 202.898438 C 81.300781 203.007812 81.523438 203.117188 81.742188 203.226562 C 82.070312 203.335938 82.398438 203.445312 82.839844 203.445312 C 82.949219 203.445312 82.949219 203.445312 83.058594 203.445312 L 123.808594 203.445312 C 124.574219 203.445312 125.234375 203.226562 125.785156 202.898438 C 126.113281 202.679688 126.332031 202.457031 126.664062 202.238281 C 126.882812 201.910156 127.101562 201.691406 127.320312 201.25 C 127.542969 200.8125 127.652344 200.261719 127.652344 199.601562 C 127.652344 197.515625 125.894531 195.757812 123.808594 195.757812 L 82.949219 195.757812 C 82.839844 195.757812 82.839844 195.757812 82.730469 195.757812 C 82.398438 195.757812 81.960938 195.867188 81.632812 195.976562 C 80.203125 196.527344 79.105469 197.957031 79.105469 199.601562 C 79.105469 200.152344 79.214844 200.703125 79.433594 201.25 C 79.65625 201.691406 79.875 202.019531 80.203125 202.238281 Z M 134.351562 196.308594 C 133.582031 196.308594 132.921875 196.96875 132.921875 197.734375 C 132.921875 198.066406 133.03125 198.394531 133.253906 198.613281 L 134.570312 200.371094 L 135.449219 201.46875 L 136.109375 202.238281 C 136.21875 202.347656 136.328125 202.457031 136.4375 202.570312 C 136.878906 202.898438 137.535156 202.898438 137.976562 202.570312 C 137.976562 202.570312 138.085938 202.570312 138.085938 202.457031 C 138.195312 202.457031 138.195312 202.347656 138.195312 202.347656 L 139.074219 201.46875 L 140.0625 200.371094 L 141.601562 198.722656 C 142.148438 198.175781 142.148438 197.296875 141.488281 196.746094 C 141.269531 196.527344 140.832031 196.417969 140.5 196.417969 L 134.351562 196.417969 Z M 71.964844 162.699219 C 71.417969 163.25 71.085938 163.90625 70.867188 164.675781 C 70.757812 164.894531 70.757812 165.226562 70.757812 165.445312 L 70.757812 178.84375 C 70.757812 179.175781 70.757812 179.394531 70.867188 179.613281 C 71.085938 180.382812 71.417969 181.042969 71.964844 181.589844 C 72.296875 181.921875 72.625 182.140625 73.066406 182.359375 C 73.503906 182.578125 74.054688 182.6875 74.601562 182.6875 L 85.914062 182.6875 C 88 182.6875 89.757812 180.929688 89.757812 178.84375 L 89.757812 165.445312 C 89.757812 163.359375 88 161.601562 85.914062 161.601562 L 74.710938 161.601562 C 74.164062 161.601562 73.613281 161.710938 73.175781 161.929688 C 72.734375 162.148438 72.296875 162.371094 71.964844 162.699219 Z M 33.964844 188.730469 C 32.207031 188.730469 30.777344 190.15625 30.777344 191.914062 C 30.777344 193.671875 32.207031 195.101562 33.964844 195.101562 C 35.722656 195.101562 37.148438 193.671875 37.148438 191.914062 C 37.148438 190.15625 35.722656 188.730469 33.964844 188.730469 Z M 59.996094 190.816406 L 40.882812 190.816406 L 40.882812 193.011719 L 59.996094 193.011719 Z M 33.964844 199.054688 C 32.207031 199.054688 30.777344 200.480469 30.777344 202.238281 C 30.777344 203.996094 32.207031 205.425781 33.964844 205.425781 C 35.722656 205.425781 37.148438 203.996094 37.148438 202.238281 C 37.148438 200.480469 35.722656 199.054688 33.964844 199.054688 Z M 59.996094 201.140625 L 40.882812 201.140625 L 40.882812 203.335938 L 59.996094 203.335938 Z M 33.964844 209.378906 C 32.207031 209.378906 30.777344 210.804688 30.777344 212.5625 C 30.777344 214.320312 32.207031 215.75 33.964844 215.75 C 35.722656 215.75 37.148438 214.320312 37.148438 212.5625 C 37.148438 210.804688 35.722656 209.378906 33.964844 209.378906 Z M 40.882812 213.660156 L 59.996094 213.660156 L 59.996094 211.464844 L 40.882812 211.464844 Z M 243.742188 107.5625 L 277.242188 107.5625 C 283.613281 107.5625 288.996094 111.1875 291.742188 116.460938 C 291.960938 117.007812 292.179688 117.449219 292.398438 117.996094 C 292.617188 118.546875 292.730469 119.097656 292.949219 119.644531 C 293.277344 120.851562 293.386719 122.0625 293.496094 123.269531 L 183.886719 123.269531 C 183.996094 121.402344 184.324219 119.535156 184.984375 117.886719 C 186.082031 115.03125 187.949219 112.617188 190.367188 110.859375 C 192.121094 109.539062 194.210938 108.550781 196.515625 108.003906 C 197.722656 107.785156 198.933594 107.5625 200.140625 107.5625 Z M 275.046875 116.019531 C 275.046875 116.460938 275.15625 116.789062 275.265625 117.117188 C 275.703125 118.4375 277.023438 119.425781 278.449219 119.425781 C 279.988281 119.425781 281.195312 118.4375 281.636719 117.117188 C 281.746094 116.789062 281.855469 116.460938 281.855469 116.019531 C 281.855469 115.582031 281.746094 115.25 281.636719 114.921875 C 281.195312 113.605469 279.878906 112.617188 278.449219 112.617188 C 276.914062 112.617188 275.703125 113.605469 275.265625 114.921875 C 275.15625 115.25 275.046875 115.582031 275.046875 116.019531 Z M 265.378906 116.019531 C 265.378906 116.460938 265.492188 116.789062 265.601562 117.117188 C 266.039062 118.4375 267.359375 119.425781 268.785156 119.425781 C 270.214844 119.425781 271.53125 118.4375 271.96875 117.117188 C 272.082031 116.789062 272.191406 116.460938 272.191406 116.019531 C 272.191406 115.582031 272.082031 115.25 271.96875 114.921875 C 271.53125 113.605469 270.214844 112.617188 268.785156 112.617188 C 267.359375 112.617188 266.039062 113.605469 265.601562 114.921875 C 265.378906 115.25 265.378906 115.582031 265.378906 116.019531 Z M 255.496094 116.019531 C 255.496094 116.460938 255.605469 116.789062 255.714844 117.117188 C 256.15625 118.4375 257.472656 119.425781 258.902344 119.425781 C 260.328125 119.425781 261.644531 118.4375 262.085938 117.117188 C 262.195312 116.789062 262.304688 116.460938 262.304688 116.019531 C 262.304688 115.582031 262.195312 115.25 262.085938 114.921875 C 261.644531 113.605469 260.328125 112.617188 258.902344 112.617188 C 257.472656 112.617188 256.15625 113.605469 255.714844 114.921875 C 255.605469 115.25 255.496094 115.582031 255.496094 116.019531 Z M 239.789062 138.207031 L 199.042969 138.207031 C 196.957031 138.207031 195.199219 139.964844 195.199219 142.050781 C 195.199219 144.136719 196.957031 145.894531 199.042969 145.894531 L 239.679688 145.894531 C 241.765625 145.894531 243.523438 144.136719 243.523438 142.050781 C 243.632812 139.964844 241.875 138.207031 239.789062 138.207031 Z M 223.09375 166.542969 C 223.644531 166.433594 224.082031 166.433594 224.632812 166.542969 L 232.980469 168.960938 L 235.175781 169.617188 L 243.632812 172.144531 L 243.632812 157.097656 C 243.632812 155.011719 241.875 153.253906 239.789062 153.253906 L 199.042969 153.253906 C 198.382812 153.253906 197.832031 153.363281 197.394531 153.691406 C 196.078125 154.351562 195.199219 155.671875 195.199219 157.097656 L 195.199219 212.453125 C 195.199219 214.539062 196.957031 216.296875 199.042969 216.296875 L 235.066406 216.296875 C 234.847656 215.96875 234.628906 215.75 234.519531 215.308594 L 233.96875 213.550781 L 232.871094 209.816406 L 221.117188 169.839844 C 220.898438 169.179688 221.007812 168.410156 221.339844 167.75 C 221.777344 167.203125 222.328125 166.761719 223.09375 166.542969 Z M 263.402344 197.734375 C 263.402344 197.734375 263.292969 197.625 263.292969 197.625 C 262.746094 196.855469 262.855469 195.867188 263.511719 195.320312 L 275.15625 185.984375 C 275.375 185.765625 275.59375 185.433594 275.703125 185.214844 C 275.925781 184.335938 275.484375 183.457031 274.605469 183.128906 L 271.96875 182.359375 C 271.96875 182.6875 271.96875 183.019531 271.859375 183.347656 C 271.75 183.898438 271.421875 184.335938 270.980469 184.664062 L 259.339844 194 C 259.230469 194.109375 259.121094 194.332031 259.121094 194.332031 C 259.121094 194.332031 259.121094 194.550781 259.230469 194.769531 L 276.691406 212.125 C 277.792969 213.222656 277.792969 214.980469 276.691406 215.96875 L 271.203125 221.460938 L 272.738281 222.996094 C 273.398438 223.65625 274.386719 223.65625 275.046875 222.996094 L 280.757812 217.285156 C 281.417969 216.625 281.417969 215.636719 280.757812 214.980469 Z M 248.796875 204.433594 L 245.832031 208.058594 L 244.730469 209.378906 L 243.632812 210.695312 L 243.523438 210.804688 L 239.898438 215.308594 L 239.242188 216.1875 L 239.679688 216.1875 C 239.898438 216.1875 240.007812 216.1875 240.230469 216.1875 L 240.449219 217.066406 C 240.558594 217.394531 240.777344 217.726562 240.996094 217.835938 C 241.65625 218.382812 242.753906 218.273438 243.304688 217.617188 L 243.632812 217.175781 L 244.730469 215.859375 L 245.832031 214.539062 L 251.980469 206.851562 L 249.566406 204.433594 C 249.453125 204.214844 249.015625 204.214844 248.796875 204.433594 Z M 248.796875 204.433594 " fill-opacity="1" fill-rule="nonzero"/><g clip-path="url(#4604fe328e)"><path fill="#000000" d="M 133.800781 17.941406 L 183.007812 17.941406 C 184.875 17.941406 186.519531 16.621094 186.851562 14.753906 C 186.960938 14.535156 186.960938 14.207031 186.960938 13.875 L 186.960938 13.4375 C 186.960938 13.109375 186.960938 12.886719 186.851562 12.558594 C 186.410156 10.800781 184.875 9.375 183.007812 9.375 L 133.800781 9.375 C 131.933594 9.375 130.289062 10.691406 129.957031 12.558594 C 129.847656 12.777344 129.847656 13.109375 129.847656 13.4375 L 129.847656 13.875 C 129.847656 14.207031 129.847656 14.425781 129.957031 14.753906 C 130.289062 16.621094 131.824219 17.941406 133.800781 17.941406 Z M 132.042969 13.765625 L 132.042969 13.546875 C 132.042969 13.21875 132.152344 13 132.265625 12.667969 C 132.59375 12.121094 133.144531 11.679688 133.800781 11.679688 L 183.007812 11.679688 C 183.664062 11.679688 184.214844 12.007812 184.542969 12.667969 C 184.652344 12.886719 184.765625 13.21875 184.765625 13.546875 L 184.765625 13.988281 C 184.765625 14.316406 184.652344 14.535156 184.542969 14.867188 C 184.214844 15.414062 183.664062 15.855469 183.007812 15.855469 L 133.800781 15.855469 C 133.144531 15.855469 132.59375 15.523438 132.265625 14.867188 C 132.152344 14.644531 132.042969 14.316406 132.042969 13.988281 Z M 158.402344 257.375 C 150.9375 257.375 144.785156 263.523438 144.785156 270.992188 C 144.785156 271.542969 144.785156 272.09375 144.894531 272.53125 C 144.785156 273.082031 144.785156 273.628906 144.785156 274.070312 C 144.785156 281.539062 150.9375 287.6875 158.402344 287.6875 C 165.871094 287.6875 172.023438 281.539062 172.023438 274.070312 C 172.023438 273.519531 172.023438 272.972656 171.914062 272.53125 C 172.023438 271.980469 172.023438 271.433594 172.023438 270.992188 C 172.023438 263.414062 165.871094 257.375 158.402344 257.375 Z M 169.71875 272.53125 C 168.949219 278.023438 164.226562 282.304688 158.402344 282.304688 C 152.582031 282.304688 147.859375 278.023438 147.089844 272.53125 C 146.980469 271.980469 146.980469 271.433594 146.980469 270.992188 C 146.980469 270.113281 147.089844 269.238281 147.3125 268.46875 C 147.640625 266.820312 148.410156 265.28125 149.507812 263.964844 C 151.59375 261.328125 154.890625 259.570312 158.515625 259.570312 C 162.136719 259.570312 165.433594 261.328125 167.519531 263.964844 C 168.507812 265.28125 169.277344 266.820312 169.71875 268.46875 C 169.9375 269.238281 170.046875 270.113281 170.046875 270.992188 C 169.828125 271.542969 169.71875 271.980469 169.71875 272.53125 Z M 154.011719 53.746094 C 153.902344 53.195312 153.792969 52.757812 153.679688 52.207031 C 153.679688 52.097656 153.679688 52.097656 153.570312 51.988281 C 153.460938 51.769531 153.460938 51.660156 153.351562 51.4375 C 153.351562 51.328125 153.242188 51.328125 153.242188 51.21875 C 153.132812 51.109375 153.132812 50.890625 153.023438 50.78125 C 153.023438 50.671875 152.914062 50.671875 152.914062 50.5625 C 152.800781 50.449219 152.691406 50.230469 152.582031 50.121094 C 152.582031 50.121094 152.472656 50.011719 152.472656 50.011719 C 152.363281 49.792969 152.253906 49.683594 152.144531 49.570312 C 152.144531 49.460938 152.035156 49.460938 152.035156 49.351562 C 151.925781 49.242188 151.8125 49.132812 151.703125 48.914062 C 151.703125 48.914062 151.59375 48.804688 151.59375 48.804688 C 151.484375 48.695312 151.265625 48.582031 151.15625 48.363281 C 151.046875 48.363281 151.046875 48.253906 150.933594 48.253906 C 150.824219 48.144531 150.605469 48.035156 150.496094 47.925781 C 150.386719 47.925781 150.386719 47.816406 150.277344 47.816406 C 150.167969 47.707031 149.945312 47.59375 149.835938 47.484375 C 149.726562 47.484375 149.726562 47.375 149.617188 47.375 C 149.507812 47.265625 149.289062 47.265625 149.179688 47.15625 C 149.070312 47.15625 148.957031 47.046875 148.957031 47.046875 C 148.847656 46.9375 148.628906 46.9375 148.519531 46.828125 C 148.410156 46.828125 148.300781 46.828125 148.191406 46.714844 C 148.078125 46.714844 147.859375 46.605469 147.75 46.605469 C 147.640625 46.605469 147.53125 46.605469 147.421875 46.605469 C 147.3125 46.605469 147.089844 46.496094 146.980469 46.496094 C 146.871094 46.496094 146.761719 46.496094 146.652344 46.496094 C 146.542969 46.496094 146.324219 46.496094 146.210938 46.496094 C 146.210938 46.496094 146.101562 46.496094 146.101562 46.496094 L 145.992188 46.496094 C 145.882812 46.496094 145.664062 46.496094 145.554688 46.496094 C 145.445312 46.496094 145.335938 46.496094 145.222656 46.496094 C 145.003906 46.496094 144.785156 46.605469 144.566406 46.605469 C 144.566406 46.605469 144.457031 46.605469 144.457031 46.605469 C 143.246094 46.828125 142.039062 47.375 141.050781 48.253906 C 140.941406 48.363281 140.722656 48.472656 140.613281 48.695312 C 140.613281 48.695312 140.5 48.804688 140.5 48.804688 C 140.5 48.804688 140.390625 48.914062 140.390625 48.914062 C 140.28125 49.023438 140.171875 49.132812 140.0625 49.242188 C 140.0625 49.242188 139.953125 49.351562 139.953125 49.351562 C 139.84375 49.460938 139.734375 49.683594 139.621094 49.792969 C 139.621094 49.902344 139.511719 49.902344 139.511719 49.902344 C 139.402344 50.011719 139.292969 50.230469 139.183594 50.339844 C 139.183594 50.449219 139.074219 50.449219 139.074219 50.5625 C 138.964844 50.78125 138.855469 50.890625 138.855469 51.109375 C 138.855469 51.21875 138.746094 51.21875 138.746094 51.328125 C 138.632812 51.550781 138.632812 51.660156 138.523438 51.878906 C 138.523438 51.988281 138.523438 51.988281 138.414062 52.097656 C 138.414062 52.316406 138.304688 52.429688 138.304688 52.648438 C 138.304688 52.757812 138.304688 52.757812 138.195312 52.867188 C 138.195312 53.085938 138.085938 53.195312 138.085938 53.417969 C 138.085938 53.527344 138.085938 53.636719 138.085938 53.746094 C 138.085938 53.855469 138.085938 54.074219 138.085938 54.183594 C 138.085938 54.296875 138.085938 54.296875 138.085938 54.40625 L 138.085938 54.625 C 138.085938 59.128906 141.710938 62.753906 146.210938 62.753906 C 150.714844 62.640625 154.230469 59.128906 154.339844 54.625 C 154.011719 54.296875 154.011719 53.964844 154.011719 53.746094 Z M 145.882812 60.554688 C 145.445312 60.554688 145.113281 60.554688 144.675781 60.445312 C 144.34375 60.335938 144.015625 60.226562 143.6875 60.117188 C 141.488281 59.238281 139.953125 57.039062 139.953125 54.625 C 139.953125 54.40625 139.953125 54.183594 139.953125 54.074219 C 139.953125 53.855469 139.953125 53.636719 140.0625 53.417969 C 140.0625 53.304688 140.171875 53.085938 140.171875 52.976562 C 140.28125 52.757812 140.28125 52.539062 140.390625 52.316406 C 140.5 52.207031 140.5 52.097656 140.613281 51.878906 C 140.722656 51.660156 140.832031 51.4375 140.941406 51.328125 C 141.050781 51.21875 141.160156 51.109375 141.269531 51 C 141.378906 50.890625 141.488281 50.671875 141.601562 50.5625 C 141.601562 50.5625 141.601562 50.5625 141.710938 50.5625 C 141.820312 50.449219 141.929688 50.339844 142.039062 50.230469 C 142.257812 50.121094 142.367188 49.902344 142.589844 49.792969 C 142.699219 49.792969 142.699219 49.683594 142.808594 49.683594 C 143.027344 49.574219 143.355469 49.351562 143.578125 49.242188 C 143.578125 49.242188 143.6875 49.242188 143.6875 49.242188 C 144.015625 49.132812 144.234375 49.023438 144.566406 48.914062 C 144.675781 48.914062 144.785156 48.914062 144.894531 48.914062 C 145.113281 48.914062 145.335938 48.804688 145.664062 48.804688 L 145.773438 48.804688 C 148.957031 48.804688 151.59375 51.4375 151.703125 54.625 C 151.8125 57.808594 149.179688 60.445312 145.882812 60.554688 Z M 294.816406 118.328125 C 292.507812 110.859375 285.480469 105.476562 277.242188 105.476562 L 245.941406 105.476562 L 245.941406 26.835938 C 245.941406 12.121094 233.96875 0.148438 219.25 0.148438 L 97.667969 0.148438 C 85.804688 0.148438 75.699219 7.945312 72.1875 18.710938 L 14.523438 18.710938 C 6.617188 18.710938 0.246094 25.078125 0.246094 32.988281 L 0.246094 96.140625 C 0.246094 101.742188 3.429688 106.574219 8.152344 108.882812 C 9.691406 115.140625 15.292969 119.863281 21.992188 119.863281 L 70.867188 119.863281 L 70.867188 149.410156 L 39.015625 149.410156 C 28.914062 149.410156 20.566406 157.648438 20.566406 167.863281 L 20.566406 222.558594 C 20.566406 228.816406 23.75 234.417969 28.582031 237.714844 C 31.769531 243.097656 37.699219 246.722656 44.398438 246.722656 L 70.867188 246.722656 L 70.867188 280 C 70.867188 294.71875 82.839844 306.6875 97.558594 306.6875 L 219.140625 306.6875 C 233.859375 306.6875 245.832031 294.71875 245.832031 280 L 245.832031 248.148438 L 284.050781 248.148438 C 294.15625 248.148438 302.503906 239.910156 302.503906 229.695312 L 302.503906 133.375 C 302.613281 127.113281 299.539062 121.621094 294.816406 118.328125 Z M 97.667969 2.34375 L 219.25 2.34375 C 232.761719 2.34375 243.742188 13.328125 243.742188 26.835938 L 243.742188 105.476562 L 235.175781 105.476562 L 235.175781 32.4375 C 235.175781 29.035156 232.429688 26.179688 228.917969 26.179688 L 97.777344 26.179688 C 95.359375 21.675781 90.636719 18.601562 85.144531 18.601562 L 74.492188 18.601562 C 77.898438 9.152344 87.011719 2.34375 97.667969 2.34375 Z M 189.488281 235.1875 C 191.792969 242.65625 198.824219 248.148438 207.058594 248.148438 L 232.980469 248.148438 L 232.980469 248.917969 C 232.980469 251.113281 231.222656 252.980469 228.917969 252.980469 L 87.890625 252.980469 C 85.695312 252.980469 83.828125 251.222656 83.828125 248.917969 L 83.828125 246.832031 L 85.914062 246.832031 C 96.019531 246.832031 104.367188 238.59375 104.367188 228.378906 L 104.367188 216.957031 L 146.652344 216.957031 C 153.242188 216.957031 158.625 211.574219 158.625 204.984375 C 158.625 201.140625 156.757812 197.734375 153.902344 195.429688 C 152.144531 190.925781 147.75 187.742188 142.699219 187.742188 L 104.257812 187.742188 L 104.257812 173.683594 C 104.257812 167.421875 101.070312 161.820312 96.238281 158.527344 C 93.601562 154.023438 89.101562 150.835938 83.71875 149.847656 L 83.71875 119.976562 L 92.503906 119.976562 C 95.03125 119.976562 97.449219 119.316406 99.535156 118.109375 C 103.816406 115.691406 106.78125 110.96875 106.78125 105.695312 L 106.78125 42.433594 C 106.78125 36.832031 103.597656 32 98.875 29.691406 C 98.765625 29.253906 98.65625 28.8125 98.546875 28.484375 L 228.695312 28.484375 C 230.894531 28.484375 232.761719 30.242188 232.761719 32.546875 L 232.761719 105.476562 L 200.140625 105.476562 C 198.710938 105.476562 197.394531 105.695312 196.078125 105.917969 C 193.878906 106.464844 191.792969 107.34375 189.925781 108.550781 C 186.519531 110.75 183.996094 114.152344 182.675781 117.996094 C 182.019531 119.863281 181.6875 121.839844 181.6875 123.929688 L 181.6875 220.25 C 181.6875 226.402344 184.765625 231.894531 189.488281 235.1875 Z M 96.789062 209.488281 L 81.632812 209.488281 C 81.523438 209.488281 81.523438 209.488281 81.410156 209.488281 C 79.433594 209.488281 77.675781 208.828125 76.140625 207.839844 C 75.589844 207.511719 75.152344 207.070312 74.710938 206.632812 C 74.273438 206.191406 73.832031 205.644531 73.503906 205.09375 C 73.285156 204.875 73.175781 204.546875 73.066406 204.324219 C 72.515625 203.335938 72.074219 202.128906 71.964844 200.921875 C 71.964844 200.480469 71.855469 200.042969 71.855469 199.601562 C 71.855469 199.164062 71.855469 198.722656 71.964844 198.285156 C 72.074219 197.078125 72.515625 195.867188 73.066406 194.878906 C 74.710938 191.804688 78.007812 189.71875 81.632812 189.71875 L 142.808594 189.71875 C 145.773438 189.71875 148.519531 191.035156 150.277344 193.234375 C 150.714844 193.78125 151.046875 194.332031 151.375 194.878906 C 151.703125 195.429688 151.925781 195.976562 152.035156 196.527344 C 152.363281 197.515625 152.472656 198.503906 152.472656 199.492188 C 152.472656 204.875 148.078125 209.269531 142.699219 209.269531 L 96.789062 209.269531 Z M 14.523438 108.222656 C 12.988281 108.222656 11.449219 107.894531 10.128906 107.34375 C 9.691406 107.234375 9.363281 107.015625 8.921875 106.792969 C 8.484375 106.574219 8.152344 106.355469 7.824219 106.136719 C 4.640625 103.9375 2.441406 100.316406 2.441406 96.140625 L 2.441406 32.988281 C 2.441406 26.289062 7.824219 20.90625 14.523438 20.90625 L 85.144531 20.90625 C 89.320312 20.90625 92.945312 22.992188 95.140625 26.289062 C 95.359375 26.617188 95.582031 27.058594 95.800781 27.386719 C 96.019531 27.714844 96.128906 28.15625 96.347656 28.484375 C 96.347656 28.59375 96.457031 28.703125 96.457031 28.703125 C 96.570312 29.144531 96.789062 29.582031 96.898438 29.914062 C 97.007812 30.351562 97.117188 30.789062 97.117188 31.230469 C 97.226562 31.78125 97.226562 32.4375 97.226562 32.988281 L 97.226562 96.140625 C 97.226562 102.839844 91.847656 108.222656 85.144531 108.222656 Z M 81.632812 119.976562 L 81.632812 149.519531 C 81.300781 149.519531 80.863281 149.410156 80.53125 149.410156 L 73.066406 149.410156 L 73.066406 119.863281 L 81.632812 119.863281 Z M 70.867188 238.8125 L 39.015625 238.8125 C 35.941406 238.8125 33.085938 237.933594 30.667969 236.507812 C 30.558594 236.398438 30.449219 236.398438 30.230469 236.285156 C 29.789062 236.066406 29.460938 235.738281 29.023438 235.40625 C 28.800781 235.1875 28.582031 235.078125 28.363281 234.859375 C 27.703125 234.308594 27.15625 233.761719 26.605469 233.101562 C 25.726562 232.113281 24.957031 230.90625 24.410156 229.695312 C 23.421875 227.609375 22.761719 225.195312 22.761719 222.667969 L 22.761719 167.972656 C 22.761719 159.074219 30.011719 151.714844 39.015625 151.714844 L 80.535156 151.714844 C 80.863281 151.714844 81.300781 151.714844 81.632812 151.824219 C 81.960938 151.824219 82.398438 151.9375 82.730469 151.9375 C 83.058594 151.9375 83.5 152.046875 83.828125 152.15625 C 86.792969 152.8125 89.539062 154.242188 91.734375 156.328125 C 92.285156 156.878906 92.945312 157.539062 93.382812 158.195312 C 93.824219 158.855469 94.371094 159.515625 94.703125 160.171875 C 96.019531 162.480469 96.789062 165.226562 96.789062 168.082031 L 96.789062 187.851562 L 81.632812 187.851562 C 78.226562 187.851562 75.261719 189.277344 73.066406 191.476562 C 72.625 191.914062 72.296875 192.355469 71.964844 192.792969 C 71.527344 193.34375 71.199219 194 70.867188 194.660156 C 70.097656 196.199219 69.660156 197.957031 69.660156 199.824219 C 69.660156 201.691406 70.097656 203.445312 70.867188 204.984375 C 71.199219 205.644531 71.527344 206.300781 71.964844 206.851562 C 72.296875 207.292969 72.625 207.730469 73.066406 208.167969 C 73.503906 208.609375 73.941406 208.9375 74.382812 209.378906 C 75.699219 212.671875 78.335938 215.199219 81.632812 216.40625 C 81.960938 216.515625 82.398438 216.625 82.730469 216.738281 C 83.058594 216.847656 83.5 216.847656 83.828125 216.957031 C 84.378906 217.066406 84.925781 217.066406 85.476562 217.066406 L 96.679688 217.066406 L 96.679688 222.777344 C 96.679688 225.304688 96.128906 227.71875 95.03125 229.808594 C 94.152344 231.5625 93.054688 233.101562 91.625 234.417969 C 91.1875 234.859375 90.746094 235.1875 90.308594 235.519531 C 89.757812 235.957031 89.320312 236.285156 88.660156 236.617188 C 87.125 237.605469 85.367188 238.265625 83.609375 238.59375 C 83.277344 238.703125 82.839844 238.703125 82.511719 238.8125 C 82.179688 238.8125 81.742188 238.921875 81.410156 238.921875 C 81.082031 238.921875 80.644531 239.03125 80.3125 239.03125 L 70.867188 239.03125 Z M 243.742188 267.480469 C 243.742188 280.988281 232.761719 291.972656 219.25 291.972656 L 97.667969 291.972656 C 84.15625 291.972656 73.175781 280.988281 73.175781 267.480469 L 73.175781 246.722656 L 81.742188 246.722656 L 81.742188 248.808594 C 81.742188 252.210938 84.488281 255.066406 88 255.066406 L 229.027344 255.066406 C 232.429688 255.066406 235.285156 252.324219 235.285156 248.808594 L 235.285156 248.039062 L 243.851562 248.039062 L 243.851562 267.480469 Z M 293.496094 220.25 C 293.496094 229.148438 286.25 236.507812 277.242188 236.507812 L 200.140625 236.507812 C 196.957031 236.507812 193.878906 235.519531 191.355469 233.980469 C 190.914062 233.652344 190.476562 233.320312 190.035156 232.992188 C 189.597656 232.664062 189.15625 232.222656 188.71875 231.894531 C 185.753906 228.929688 183.886719 224.863281 183.886719 220.359375 L 183.886719 123.929688 C 183.886719 123.707031 183.886719 123.597656 183.886719 123.378906 C 183.996094 121.511719 184.324219 119.644531 184.984375 117.996094 C 186.082031 115.140625 187.949219 112.726562 190.367188 110.96875 C 192.121094 109.652344 194.210938 108.660156 196.515625 108.113281 C 197.722656 107.894531 198.933594 107.671875 200.140625 107.671875 L 277.132812 107.671875 C 283.503906 107.671875 288.882812 111.296875 291.628906 116.570312 C 291.851562 117.117188 292.070312 117.558594 292.289062 118.109375 C 292.507812 118.65625 292.617188 119.207031 292.839844 119.753906 C 293.167969 120.964844 293.277344 122.171875 293.386719 123.378906 C 293.386719 123.597656 293.386719 123.707031 293.386719 123.929688 L 293.386719 220.25 Z M 259.230469 194.878906 C 259.121094 194.769531 259.121094 194.550781 259.121094 194.441406 C 259.121094 194.332031 259.121094 194.222656 259.339844 194.109375 L 270.980469 184.777344 C 271.421875 184.445312 271.75 183.898438 271.859375 183.457031 C 271.96875 183.128906 271.96875 182.796875 271.96875 182.46875 C 271.859375 181.371094 271.09375 180.382812 269.992188 180.054688 L 245.941406 172.914062 L 244.84375 172.585938 L 243.742188 172.253906 L 243.632812 172.253906 L 235.175781 169.730469 L 234.078125 169.398438 L 232.980469 169.070312 L 224.632812 166.652344 C 224.082031 166.542969 223.535156 166.542969 223.09375 166.652344 C 222.4375 166.871094 221.777344 167.3125 221.449219 167.972656 C 221.117188 168.628906 221.007812 169.398438 221.226562 170.058594 L 232.980469 210.035156 L 234.078125 213.769531 L 234.628906 215.527344 C 234.738281 215.859375 234.957031 216.1875 235.175781 216.515625 C 235.285156 216.625 235.394531 216.738281 235.507812 216.847656 C 236.054688 217.285156 236.824219 217.503906 237.484375 217.394531 C 238.253906 217.285156 238.910156 216.957031 239.351562 216.40625 L 240.007812 215.527344 L 243.632812 211.027344 L 243.742188 210.914062 L 244.84375 209.597656 L 245.941406 208.28125 L 248.90625 204.65625 C 249.125 204.433594 249.453125 204.433594 249.675781 204.65625 L 267.027344 222.007812 C 267.578125 222.558594 268.234375 222.777344 269.003906 222.777344 C 269.664062 222.777344 270.433594 222.558594 270.980469 222.007812 L 271.203125 221.789062 L 276.691406 216.296875 C 277.792969 215.199219 277.792969 213.441406 276.691406 212.453125 Z M 275.046875 214.539062 L 269.335938 220.25 C 269.113281 220.472656 268.785156 220.472656 268.566406 220.25 L 253.628906 205.3125 L 251.101562 202.789062 C 250.554688 202.238281 249.894531 202.019531 249.125 202.019531 C 248.355469 202.019531 247.699219 202.347656 247.148438 202.789062 C 247.039062 202.898438 247.039062 202.898438 246.929688 203.007812 L 245.71875 204.433594 L 244.621094 205.753906 L 243.523438 207.070312 L 243.414062 207.179688 L 239.128906 212.5625 L 237.484375 214.648438 C 237.261719 214.871094 236.933594 214.871094 236.714844 214.757812 C 236.605469 214.648438 236.605469 214.539062 236.496094 214.429688 L 234.957031 209.269531 L 232.761719 201.800781 L 223.09375 169.070312 C 222.984375 168.738281 223.207031 168.410156 223.425781 168.410156 C 223.535156 168.410156 223.644531 168.410156 223.753906 168.410156 L 227.707031 169.617188 L 232.652344 171.046875 L 233.75 171.375 L 234.847656 171.707031 L 243.304688 174.230469 L 243.414062 174.230469 L 244.511719 174.5625 L 245.609375 174.890625 L 269.113281 181.808594 C 269.445312 181.921875 269.554688 182.25 269.445312 182.46875 C 269.445312 182.578125 269.335938 182.6875 269.226562 182.796875 L 257.582031 192.132812 C 257.035156 192.574219 256.59375 193.234375 256.59375 194 C 256.484375 194.769531 256.703125 195.429688 257.144531 195.976562 C 257.253906 196.089844 257.253906 196.089844 257.363281 196.199219 L 274.714844 213.550781 C 275.265625 213.992188 275.265625 214.320312 275.046875 214.539062 Z M 145.113281 37.492188 C 140.5 37.710938 136.21875 39.796875 133.253906 43.3125 C 127.871094 49.242188 127.429688 57.917969 131.933594 64.398438 C 132.703125 65.496094 133.472656 66.597656 134.242188 67.585938 C 135.558594 69.453125 136.988281 71.429688 138.304688 73.296875 L 140.941406 76.921875 L 143.796875 80.984375 C 144.34375 81.863281 145.113281 82.191406 145.882812 82.300781 C 146.652344 82.300781 147.3125 81.863281 147.96875 80.984375 L 148.191406 80.765625 C 149.289062 79.226562 150.386719 77.6875 151.484375 76.152344 C 152.691406 74.394531 154.011719 72.636719 155.21875 70.878906 C 156.535156 69.121094 157.746094 67.363281 159.0625 65.609375 C 159.832031 64.621094 160.382812 63.628906 160.929688 62.53125 C 162.90625 58.6875 163.457031 54.734375 162.359375 50.449219 C 160.492188 42.652344 153.570312 37.492188 145.113281 37.492188 Z M 158.515625 62.421875 C 158.183594 62.972656 157.746094 63.628906 157.304688 64.179688 C 155.988281 65.9375 154.78125 67.695312 153.460938 69.453125 C 152.144531 71.210938 150.9375 73.078125 149.617188 74.832031 C 148.519531 76.371094 147.421875 77.910156 146.324219 79.554688 L 146.210938 79.667969 C 146.101562 79.886719 145.992188 79.996094 145.882812 79.996094 C 145.773438 79.996094 145.773438 79.886719 145.554688 79.667969 L 142.476562 75.382812 L 140.0625 71.976562 C 138.746094 70.21875 137.535156 68.464844 136.21875 66.597656 C 135.339844 65.386719 134.460938 64.179688 133.582031 62.972656 C 129.628906 57.261719 130.066406 49.792969 134.679688 44.519531 C 137.207031 41.554688 140.941406 39.6875 144.894531 39.46875 C 152.253906 39.46875 158.402344 43.972656 160.050781 50.78125 C 161.261719 54.953125 160.710938 58.6875 158.515625 62.421875 Z M 71.964844 90.539062 L 74.382812 90.539062 C 76.25 90.429688 78.117188 89.769531 79.542969 88.453125 L 79.65625 88.34375 C 80.53125 87.574219 81.191406 86.695312 81.632812 85.597656 C 81.742188 85.269531 81.960938 84.9375 82.070312 84.5 L 82.730469 81.863281 L 83.828125 77.800781 L 91.40625 49.683594 C 91.847656 47.925781 91.625 46.167969 90.636719 44.960938 C 89.867188 43.972656 88.769531 43.3125 87.453125 43.09375 L 88 41.113281 C 88.550781 38.917969 88.222656 36.832031 87.011719 35.292969 C 86.246094 34.304688 85.144531 33.535156 83.828125 33.207031 C 83.5 33.097656 83.058594 32.988281 82.730469 32.988281 C 82.511719 32.988281 82.179688 32.988281 81.960938 32.988281 L 66.476562 32.988281 C 61.972656 33.207031 58.128906 36.28125 56.917969 40.566406 L 56.261719 42.980469 L 26.824219 42.980469 C 23.3125 43.203125 20.234375 45.617188 19.136719 49.023438 L 9.910156 83.621094 L 9.800781 83.949219 C 9.472656 85.15625 9.472656 86.367188 9.910156 87.355469 C 10.128906 87.792969 10.351562 88.234375 10.570312 88.671875 C 11.558594 89.878906 12.988281 90.539062 14.632812 90.539062 L 24.410156 90.539062 C 24.410156 90.539062 24.519531 90.539062 24.519531 90.539062 Z M 56.808594 49.683594 L 57.796875 46.167969 L 58.019531 45.179688 L 58.347656 44.082031 L 58.675781 42.980469 L 59.117188 41.113281 C 60.105469 37.710938 63.179688 35.292969 66.695312 35.183594 L 75.261719 35.183594 C 76.6875 35.183594 77.898438 35.734375 78.554688 36.613281 C 79.324219 37.601562 79.542969 39.027344 79.105469 40.566406 L 78.445312 42.980469 L 78.335938 43.203125 L 78.117188 44.082031 L 78.117188 44.300781 L 77.898438 45.179688 L 77.898438 45.289062 L 77.566406 46.386719 L 77.128906 47.484375 L 76.6875 49.132812 C 76.6875 49.132812 76.6875 49.132812 76.6875 49.242188 C 76.46875 50.011719 76.140625 50.671875 75.699219 51.328125 C 75.042969 52.429688 74.164062 53.195312 73.066406 53.855469 C 72.734375 54.074219 72.296875 54.296875 71.964844 54.40625 C 71.636719 54.515625 71.308594 54.625 70.976562 54.734375 C 70.976562 54.734375 70.976562 54.734375 70.867188 54.734375 C 70.320312 54.84375 69.769531 54.953125 69.109375 55.0625 L 60.652344 55.0625 C 59.226562 55.0625 58.019531 54.515625 57.359375 53.636719 C 56.589844 52.539062 56.480469 51.21875 56.808594 49.683594 Z M 24.847656 45.726562 C 25.507812 45.398438 26.167969 45.289062 26.933594 45.179688 L 55.820312 45.179688 L 55.601562 46.058594 L 54.832031 49.023438 C 54.285156 51.21875 54.613281 53.304688 55.820312 54.84375 C 56.917969 56.382812 58.785156 57.152344 60.875 57.152344 L 63.949219 57.152344 L 51.757812 66.15625 L 50.769531 66.925781 L 49.890625 67.585938 L 48.132812 68.902344 C 46.375 70.21875 44.398438 70.769531 42.859375 70.550781 C 41.761719 70.332031 40.773438 69.78125 40.113281 68.792969 L 39.566406 68.023438 L 38.246094 66.265625 L 29.902344 54.183594 L 29.132812 52.976562 L 28.253906 51.769531 L 24.1875 45.949219 L 23.96875 45.726562 Z M 11.339844 88.34375 Z M 11.996094 84.5 L 21.332031 49.683594 C 21.554688 48.804688 21.992188 48.035156 22.542969 47.375 L 27.484375 54.515625 L 29.023438 56.929688 L 36.378906 67.476562 L 23.53125 77.359375 L 22.101562 78.457031 L 20.675781 79.554688 L 11.777344 86.367188 C 11.777344 85.925781 11.777344 85.269531 11.996094 84.5 Z M 67.023438 87.683594 C 66.253906 88.125 65.375 88.34375 64.496094 88.34375 L 14.742188 88.34375 C 14.523438 88.34375 14.304688 88.34375 14.085938 88.234375 L 13.207031 88.234375 L 13.425781 88.011719 L 19.90625 82.960938 L 21.332031 81.863281 L 22.761719 80.765625 L 37.808594 69.121094 L 38.246094 69.78125 C 39.238281 71.210938 40.664062 72.199219 42.421875 72.417969 C 42.75 72.527344 43.191406 72.527344 43.628906 72.527344 C 45.496094 72.527344 47.582031 71.757812 49.449219 70.441406 L 51.316406 69.011719 L 67.574219 87.246094 L 67.792969 87.574219 Z M 69.21875 85.816406 L 53.074219 67.914062 L 67.574219 57.261719 L 76.25 57.261719 C 76.6875 57.261719 77.019531 57.152344 77.457031 57.152344 L 73.175781 73.078125 L 72.074219 77.140625 L 70.976562 81.203125 L 70.207031 83.949219 C 69.988281 84.609375 69.660156 85.269531 69.21875 85.816406 Z M 69.21875 85.816406 " fill-opacity="1" fill-rule="nonzero"/></g></svg>